<svg width="118" height="21" viewBox="0 0 118 21" fill="none" xmlns="http://www.w3.org/2000/svg">
<path fill-rule="evenodd" clip-rule="evenodd" d="M0 21L-7.31977e-07 4.25431L2.64631 6.59303C3.935 7.73193 4.67301 9.36907 4.67301 11.0889L4.67301 12.6272L4.67301 21L0 21ZM19.3596 16.9267L16.7133 14.588C15.4246 13.4491 14.6866 11.812 14.6866 10.0921L14.6866 8.55388L14.6866 0.181033L19.3596 0.181033L19.3596 16.9267ZM9.67981 0.237606L9.67981 4.82004L9.67981 7.44589C9.67981 8.91345 10.2749 10.3183 11.3291 11.3393C13.2618 13.2111 14.3528 15.7866 14.3528 18.4772L14.3528 21L9.67981 21L9.73544 15.9084L9.70842 13.7654C9.69011 12.3127 9.09292 10.9273 8.04931 9.91653C6.10462 8.03307 5.0068 5.44153 5.0068 2.73428L5.0068 0.237606L9.67981 0.237606Z" fill="#6AD9FF"/>
<path d="M114.461 20.3438V1.17981H117.89V20.3438H114.461Z" fill="white"/>
<path d="M93 20.3438V4.87953C93 4.20524 93.1658 3.59305 93.4973 3.04298C93.8288 2.47515 94.265 2.02267 94.806 1.68553C95.3643 1.34838 95.975 1.17981 96.6381 1.17981H108.181C108.844 1.17981 109.454 1.34838 110.013 1.68553C110.571 2.02267 111.016 2.47515 111.348 3.04298C111.679 3.59305 111.845 4.20524 111.845 4.87953V20.3438H108.364V13.9026H96.4549V20.3438H93ZM96.4549 10.3892H108.364V5.03923C108.364 4.9505 108.329 4.87953 108.259 4.82629C108.189 4.75532 108.111 4.71983 108.024 4.71983H96.769C96.6817 4.71983 96.6032 4.75532 96.5334 4.82629C96.4811 4.87953 96.4549 4.9505 96.4549 5.03923V10.3892Z" fill="white"/>
<path d="M79.4191 20.3438V4.71983H71.7241V1.17981H90.5689V4.71983H82.9002V20.3438H79.4191Z" fill="white"/>
<path d="M54.5771 20.3438C53.914 20.3438 53.3033 20.1752 52.7449 19.8381C52.204 19.5009 51.7678 19.0573 51.4363 18.5073C51.1047 17.9394 50.939 17.3184 50.939 16.6441V4.87953C50.939 4.20524 51.1047 3.59305 51.4363 3.04298C51.7678 2.47515 52.204 2.02267 52.7449 1.68553C53.3033 1.34838 53.914 1.17981 54.5771 1.17981H66.1457C66.8088 1.17981 67.4107 1.34838 67.9517 1.68553C68.51 2.02267 68.955 2.47515 69.2865 3.04298C69.618 3.59305 69.7838 4.20524 69.7838 4.87953V16.6441C69.7838 17.3184 69.618 17.9394 69.2865 18.5073C68.955 19.0573 68.51 19.5009 67.9517 19.8381C67.4107 20.1752 66.8088 20.3438 66.1457 20.3438H54.5771ZM54.7079 16.8038H65.9625C66.0497 16.8038 66.1282 16.7772 66.198 16.7239C66.2678 16.653 66.3027 16.5731 66.3027 16.4844V5.03923C66.3027 4.9505 66.2678 4.87953 66.198 4.82629C66.1282 4.75532 66.0497 4.71983 65.9625 4.71983H54.7079C54.6207 4.71983 54.5422 4.75532 54.4724 4.82629C54.42 4.87953 54.3938 4.9505 54.3938 5.03923V16.4844C54.3938 16.5731 54.42 16.653 54.4724 16.7239C54.5422 16.7772 54.6207 16.8038 54.7079 16.8038Z" fill="white"/>
<path d="M29.2144 20.3438V1.17981H33.0095L44.5781 15.1802V1.17981H48.0592V20.3438H44.264L32.6692 6.31683V20.3438H29.2144Z" fill="white"/>
</svg>
