<svg width="24" height="24" viewBox="0 0 24 24" fill="none" xmlns="http://www.w3.org/2000/svg">
<g clip-path="url(#clip0_958_429)">
<path d="M18 5.625C18 4.905 17.88 4.215 17.655 3.57C19.1925 4.3875 20.25 6.015 20.25 7.875C20.25 10.56 18.06 12.75 15.375 12.75C14.37 12.75 13.425 12.4425 12.6525 11.9175C13.395 11.7975 14.1 11.55 14.73 11.19C16.6425 10.1175 17.9475 8.0925 18 5.76V5.625ZM11.265 10.485C11.385 10.4925 11.505 10.5 11.625 10.5C12.1125 10.5 12.585 10.425 13.0275 10.2975C15.03 9.69 16.5 7.8225 16.5 5.625C16.5 5.295 16.47 4.98 16.4025 4.665C16.2825 4.065 16.0575 3.51 15.735 3.015C14.8725 1.6575 13.35 0.75 11.625 0.75C8.94 0.75 6.75 2.94 6.75 5.625C6.75 8.19 8.745 10.2975 11.265 10.485ZM5.1375 12.8475C4.935 12.78 4.7175 12.75 4.5 12.75H3C1.7625 12.75 0.75 13.7625 0.75 15V20.985C0.75 22.2225 1.7625 23.235 3 23.235H4.5C4.71 23.235 4.92 23.205 5.115 23.145C4.2825 22.455 3.75 21.4125 3.75 20.25V15.75C3.75 14.58 4.29 13.53 5.1375 12.8475ZM22.638 14.3753C22.5457 14.247 22.4422 14.1263 22.3207 14.0213C22.1707 13.89 21.9997 13.7775 21.81 13.6875C21.48 13.5375 21.12 13.485 20.7645 13.5188C20.64 13.5308 20.5192 13.566 20.3977 13.5983C20.1712 13.6583 19.95 13.7408 19.7475 13.8675L16.8285 15.7898L15.75 16.5L14.256 17.496C13.7632 17.8245 13.1842 18 12.5917 18H10.5C10.0875 18 9.75 17.6625 9.75 17.25C9.75 16.8375 10.0875 16.5 10.5 16.5H12.75C13.575 16.5 14.25 15.825 14.25 15C14.25 14.1878 13.5945 13.524 12.7867 13.5038C12.774 13.5038 12.7627 13.5 12.75 13.5H7.5C7.482 13.5 7.4655 13.506 7.4475 13.5068C7.2885 13.5105 7.134 13.5315 6.98475 13.566C6.9165 13.5818 6.85275 13.6058 6.7875 13.6275C6.69375 13.659 6.603 13.6943 6.51525 13.7378C6.47775 13.7558 6.43425 13.7648 6.39825 13.785C6.35025 13.8128 6.30525 13.8458 6.2595 13.8765C6.24975 13.8833 6.24 13.8893 6.231 13.8953C6.1185 13.9733 6.012 14.0588 5.916 14.1555C5.90775 14.1638 5.901 14.1728 5.89275 14.1818C5.81175 14.265 5.739 14.355 5.6715 14.4495C5.65125 14.478 5.63175 14.5058 5.613 14.535C5.54475 14.6408 5.4825 14.751 5.43225 14.868C5.427 14.8808 5.42325 14.8943 5.418 14.907C5.37375 15.0158 5.34 15.129 5.313 15.2453C5.3055 15.279 5.298 15.3128 5.292 15.3465C5.268 15.4778 5.2515 15.6113 5.2515 15.7493V20.2508V20.2538C5.2515 20.391 5.268 20.5238 5.292 20.6543C5.298 20.688 5.30475 20.721 5.31225 20.754C5.34075 20.88 5.37675 21.003 5.42625 21.12C5.427 21.1223 5.42775 21.1253 5.4285 21.1275C5.48025 21.2505 5.5455 21.3653 5.6175 21.4763C5.63175 21.4988 5.64675 21.5198 5.6625 21.5415C5.73525 21.645 5.814 21.7425 5.9025 21.8318C5.90625 21.8355 5.90925 21.8393 5.913 21.843C6.00375 21.933 6.1035 22.0133 6.2085 22.0868C6.2385 22.1078 6.26925 22.1265 6.3 22.146C6.33075 22.1655 6.36 22.188 6.3915 22.206C6.4155 22.2195 6.444 22.2248 6.46875 22.2375C6.582 22.2968 6.7005 22.3448 6.82425 22.3845C6.873 22.3995 6.91875 22.4175 6.96825 22.4295C7.14 22.4715 7.317 22.5 7.50225 22.5H15.1987C15.432 22.5 15.6592 22.4573 15.8782 22.3883C16.056 22.332 16.2262 22.2563 16.3852 22.1573C16.4805 22.098 16.5742 22.035 16.6612 21.9615L20.8057 18.4208L22.503 16.9718L22.6155 16.8518C22.863 16.5218 23.0355 16.0043 23.0355 15.5918C23.0355 15.1395 22.8915 14.7218 22.641 14.3745L22.638 14.3753Z" fill="#6AD9FF"/>
</g>
<defs>
<clipPath id="clip0_958_429">
<rect width="24" height="24" fill="white"/>
</clipPath>
</defs>
</svg>
