<svg width="24" height="24" viewBox="0 0 24 24" fill="none" xmlns="http://www.w3.org/2000/svg">
<path fill-rule="evenodd" clip-rule="evenodd" d="M4 10C4 5.58172 7.58172 2 12 2C16.4183 2 20 5.58172 20 10C20 14.4183 16.4183 18 12 18C7.58172 18 4 14.4183 4 10ZM12 5C12.4332 5 12.8172 5.27896 12.951 5.69098L13.6246 7.76393H15.8042C16.2374 7.76393 16.6214 8.04289 16.7553 8.45492C16.8891 8.86694 16.7425 9.31831 16.392 9.57295L14.6286 10.8541L15.3022 12.9271C15.436 13.3391 15.2894 13.7904 14.9389 14.0451C14.5884 14.2997 14.1138 14.2997 13.7633 14.0451L12 12.7639L10.2366 14.0451C9.88613 14.2997 9.41153 14.2997 9.06105 14.0451C8.71056 13.7904 8.5639 13.3391 8.69778 12.9271L9.37132 10.8541L7.60796 9.57295C7.25747 9.31831 7.11082 8.86694 7.24469 8.45492C7.37856 8.04289 7.76252 7.76393 8.19575 7.76393H10.3754L11.0489 5.69098C11.1828 5.27896 11.5667 5 12 5Z" fill="#6AD9FF"/>
<path fill-rule="evenodd" clip-rule="evenodd" d="M8 15C8.55228 15 9 15.4477 9 16V20.382L11.5528 19.1056C11.8343 18.9648 12.1657 18.9648 12.4472 19.1056L15 20.382V16C15 15.4477 15.4477 15 16 15C16.5523 15 17 15.4477 17 16V22C17 22.3466 16.8205 22.6684 16.5257 22.8507C16.2309 23.0329 15.8628 23.0494 15.5528 22.8944L12 21.118L8.44721 22.8944C8.13723 23.0494 7.76909 23.0329 7.47427 22.8507C7.17945 22.6684 7 22.3466 7 22V16C7 15.4477 7.44772 15 8 15Z" fill="#6AD9FF"/>
</svg>
