<svg width="24" height="24" viewBox="0 0 24 24" fill="none" xmlns="http://www.w3.org/2000/svg">
<g clip-path="url(#clip0_958_406)">
<path d="M4.22628 14.6725L9.4798 9.41896L10.7347 10.6753C11.3263 11.2699 12.1138 11.5975 12.9519 11.5975C13.79 11.5975 14.5775 11.2699 15.1694 10.675C16.3867 9.45163 16.3867 7.46113 15.1694 6.23774L13.2019 4.26496L14.1793 3.40541C16.6378 1.2509 20.3775 1.49741 22.532 3.95601C24.6866 6.4146 24.44 10.1543 21.9815 12.3088L20.5772 13.6067L19.0182 12.0477C18.1112 11.1407 16.6353 11.1407 15.7283 12.0477C15.2958 12.4802 15.0551 13.0532 15.0477 13.6637C14.462 13.6712 13.8786 13.8974 13.4327 14.3433C12.9866 14.7894 12.7604 15.3732 12.7532 15.9592C12.1671 15.9664 11.5834 16.1926 11.1372 16.6388C10.2302 17.5458 10.2302 19.0217 11.1372 19.9287L12.3858 21.1773L11.3298 22.1532C10.6094 22.7845 9.51364 22.7123 8.88233 21.9919C8.25102 21.2715 8.32325 20.1757 9.04367 19.5444C8.3233 20.1757 7.2275 20.1035 6.59624 19.3831C5.96492 18.6627 6.03716 17.5669 6.75758 16.9356L6.75749 16.9356C6.03711 17.5669 4.94131 17.4946 4.31 16.7742C3.76902 16.1569 3.80033 15.3775 4.22628 14.6725Z" fill="#6AD9FF"/>
<path d="M1.73365 3.15047C4.04525 0.838922 7.793 0.838922 10.1046 3.15047L14.1731 7.22972C14.6589 7.71806 14.8082 8.46975 14.5519 9.10809C14.2731 9.80255 13.555 10.2472 12.8088 10.1852C12.3973 10.1511 12.0097 9.96619 11.7207 9.67205L9.48087 7.42973L3.5614 13.3491L1.7337 11.5214C-0.577892 9.20981 -0.577892 5.46202 1.73365 3.15047Z" fill="#6AD9FF"/>
<path d="M18.7292 16.3488L16.7236 14.3432C16.5498 14.1694 16.4541 13.9384 16.4541 13.6926C16.4541 13.4468 16.5498 13.2158 16.7236 13.042C16.9029 12.8627 17.1386 12.773 17.3742 12.773C17.6098 12.773 17.8454 12.8627 18.0247 13.0421L20.0303 15.0477C20.3877 15.405 20.3888 15.9854 20.0342 16.3446C20.0283 16.3503 20.0223 16.3558 20.0164 16.3615C19.8442 16.5269 19.6192 16.6183 19.3798 16.6183C19.134 16.6183 18.903 16.5226 18.7292 16.3488Z" fill="#6AD9FF"/>
<path d="M16.4333 18.6444L14.4276 16.6388C14.2539 16.465 14.1582 16.234 14.1582 15.9882C14.1582 15.7424 14.2539 15.5114 14.4276 15.3376C14.6015 15.1639 14.8325 15.0681 15.0782 15.0681C15.324 15.0681 15.555 15.1639 15.7288 15.3376L17.7344 17.3433C17.9082 17.5171 18.0039 17.7481 18.0039 17.9938C18.0039 18.2383 17.9091 18.4679 17.7372 18.6414C17.7334 18.6452 17.7295 18.6487 17.7257 18.6524C17.3662 19.0026 16.7892 19.0003 16.4333 18.6444Z" fill="#6AD9FF"/>
<path d="M14.138 20.94L12.1323 18.9344C11.7736 18.5756 11.7736 17.9919 12.1323 17.6332C12.3061 17.4594 12.5371 17.3637 12.7829 17.3637C13.0287 17.3637 13.2597 17.4594 13.4335 17.6332L15.4391 19.6388C15.6129 19.8126 15.7086 20.0436 15.7086 20.2894C15.7086 20.5344 15.6133 20.7648 15.4405 20.9385C15.4386 20.9403 15.4367 20.942 15.4348 20.9439C15.0757 21.2984 14.4953 21.2973 14.138 20.94Z" fill="#6AD9FF"/>
</g>
<defs>
<clipPath id="clip0_958_406">
<rect width="24" height="24" fill="white"/>
</clipPath>
</defs>
</svg>
