<svg width="24" height="24" viewBox="0 0 24 24" fill="none" xmlns="http://www.w3.org/2000/svg">
<g clip-path="url(#clip0_961_915)">
<path d="M21 18.75C20.6536 18.75 20.3291 18.835 20.0361 18.9756L17.803 16.7417C18.8621 15.4482 19.5 13.7966 19.5 12C19.5 10.2034 18.8621 8.55176 17.803 7.2583L20.0361 5.02441C20.3291 5.16504 20.6536 5.25 21 5.25C22.2407 5.25 23.25 4.24072 23.25 3C23.25 1.75928 22.2407 0.75 21 0.75C19.7593 0.75 18.75 1.75928 18.75 3C18.75 3.34644 18.835 3.67053 18.9756 3.96387L16.7424 6.19739C15.4482 5.13794 13.7974 4.5 12 4.5C10.2026 4.5 8.55176 5.13794 7.25757 6.19739L5.02441 3.96387C5.16504 3.6709 5.25 3.34644 5.25 3C5.25 1.75928 4.24072 0.75 3 0.75C1.75928 0.75 0.75 1.75928 0.75 3C0.75 4.24072 1.75928 5.25 3 5.25C3.34644 5.25 3.6709 5.16504 3.96387 5.02441L6.19702 7.2583C5.13794 8.55176 4.5 10.2034 4.5 12C4.5 13.7966 5.13794 15.4482 6.19702 16.7417L3.96387 18.9756C3.6709 18.835 3.34644 18.75 3 18.75C1.75928 18.75 0.75 19.7593 0.75 21C0.75 22.2407 1.75928 23.25 3 23.25C4.24072 23.25 5.25 22.2407 5.25 21C5.25 20.6536 5.16504 20.3291 5.02441 20.0361L7.25757 17.8026C8.55176 18.8621 10.2026 19.5 12 19.5C13.7974 19.5 15.4482 18.8621 16.7424 17.8026L18.9756 20.0361C18.835 20.3291 18.75 20.6536 18.75 21C18.75 22.2407 19.7593 23.25 21 23.25C22.2407 23.25 23.25 22.2407 23.25 21C23.25 19.7593 22.2407 18.75 21 18.75ZM12 6.75C13.2378 6.75 14.25 7.76257 14.25 9C14.25 10.2374 13.2378 11.25 12 11.25C10.7622 11.25 9.75 10.2374 9.75 9C9.75 7.76257 10.7622 6.75 12 6.75ZM15 15.8925C15 16.155 14.8572 16.4026 14.6323 16.5374C13.845 17.0024 12.9375 17.25 12 17.25C11.0625 17.25 10.155 17.0024 9.36768 16.5374C9.14282 16.4026 9 16.155 9 15.8925V15C9 13.3425 10.3425 12 12 12C13.6575 12 15 13.3425 15 15V15.8925Z" fill="#6AD9FF"/>
</g>
<defs>
<clipPath id="clip0_961_915">
<rect width="24" height="24" fill="white"/>
</clipPath>
</defs>
</svg>
