<svg width="24" height="24" viewBox="0 0 24 24" fill="none" xmlns="http://www.w3.org/2000/svg">
<path d="M15.62 8.422C15.475 8.635 15.239 8.75 14.999 8.75C14.854 8.75 14.707 8.708 14.578 8.62L12.121 6.95C12.054 6.906 11.947 6.907 11.865 6.96L9.422 8.62C9.08 8.854 8.613 8.765 8.38 8.422C8.147 8.079 8.236 7.613 8.578 7.38L11.035 5.71C11.627 5.325 12.373 5.326 12.952 5.701L15.422 7.38C15.764 7.613 15.853 8.079 15.62 8.422ZM15.62 12.422C15.475 12.635 15.239 12.75 14.999 12.75C14.854 12.75 14.707 12.708 14.578 12.62L12.121 10.95C12.054 10.907 11.947 10.906 11.865 10.96L9.422 12.62C9.08 12.853 8.613 12.765 8.38 12.422C8.147 12.079 8.236 11.613 8.578 11.38L11.035 9.71C11.627 9.325 12.373 9.326 12.952 9.701L15.422 11.38C15.764 11.613 15.853 12.079 15.62 12.422ZM17.976 4.953L12.976 1.551C12.383 1.148 11.616 1.148 11.023 1.551L6.023 4.953C5.539 5.283 5.25 5.832 5.25 6.422V17.577C5.25 18.168 5.539 18.717 6.023 19.047L11.022 22.447C11.319 22.651 11.66 22.752 12 22.752C12.34 22.752 12.68 22.651 12.976 22.448L17.976 19.047C18.461 18.717 18.75 18.168 18.75 17.577V6.422C18.75 5.832 18.461 5.283 17.976 4.953Z" fill="#6AD9FF"/>
</svg>
