<svg width="24" height="24" viewBox="0 0 24 24" fill="none" xmlns="http://www.w3.org/2000/svg">
<path d="M22.5 1H1.5C1.36739 1 1.24021 1.05268 1.14645 1.14645C1.05268 1.24021 1 1.36739 1 1.5V22.5C1 22.6326 1.05268 22.7598 1.14645 22.8536C1.24021 22.9473 1.36739 23 1.5 23H22.5C22.6326 23 22.7598 22.9473 22.8536 22.8536C22.9473 22.7598 23 22.6326 23 22.5V1.5C23 1.36739 22.9473 1.24021 22.8536 1.14645C22.7598 1.05268 22.6326 1 22.5 1ZM8 7C8 7.13261 7.94732 7.25979 7.85355 7.35355C7.75979 7.44732 7.63261 7.5 7.5 7.5H6.5C6.36739 7.5 6.24021 7.44732 6.14645 7.35355C6.05268 7.25979 6 7.13261 6 7C6 6.86739 6.05268 6.74021 6.14645 6.64645C6.24021 6.55268 6.36739 6.5 6.5 6.5H7.5C7.63261 6.5 7.75979 6.55268 7.85355 6.64645C7.94732 6.74021 8 6.86739 8 7ZM16 17C16 16.8674 16.0527 16.7402 16.1464 16.6464C16.2402 16.5527 16.3674 16.5 16.5 16.5H17.5C17.6326 16.5 17.7598 16.5527 17.8536 16.6464C17.9473 16.7402 18 16.8674 18 17C18 17.1326 17.9473 17.2598 17.8536 17.3536C17.7598 17.4473 17.6326 17.5 17.5 17.5H16.5C16.3674 17.5 16.2402 17.4473 16.1464 17.3536C16.0527 17.2598 16 17.1326 16 17ZM11.5 22H2V12.5H5.5C5.63261 12.5 5.75979 12.4473 5.85355 12.3536C5.94732 12.2598 6 12.1326 6 12V10.5C6.00022 10.3685 6.0264 10.2383 6.07702 10.1169C6.12764 9.99546 6.20171 9.88523 6.295 9.7925C6.38697 9.69907 6.49676 9.62504 6.61785 9.57479C6.73895 9.52455 6.8689 9.49912 7 9.5C7.26522 9.5 7.51957 9.60536 7.70711 9.79289C7.89464 9.98043 8 10.2348 8 10.5V12C8 12.1326 8.05268 12.2598 8.14645 12.3536C8.24021 12.4473 8.36739 12.5 8.5 12.5H11.5V15H10.5C9.96957 15 9.46086 15.2107 9.08579 15.5858C8.71071 15.9609 8.5 16.4696 8.5 17C8.5 17.5304 8.71071 18.0391 9.08579 18.4142C9.46086 18.7893 9.96957 19 10.5 19H11.5V22ZM22 11.5H18.5C18.3674 11.5 18.2402 11.5527 18.1464 11.6464C18.0527 11.7402 18 11.8674 18 12V13.5C18 13.7652 17.8946 14.0196 17.7071 14.2071C17.5196 14.3946 17.2652 14.5 17 14.5C16.7348 14.5 16.4804 14.3946 16.2929 14.2071C16.1054 14.0196 16 13.7652 16 13.5V12C16 11.8674 15.9473 11.7402 15.8536 11.6464C15.7598 11.5527 15.6326 11.5 15.5 11.5H12.5V9H13.5C14.0304 9 14.5391 8.78929 14.9142 8.41421C15.2893 8.03914 15.5 7.53043 15.5 7C15.5 6.46957 15.2893 5.96086 14.9142 5.58579C14.5391 5.21071 14.0304 5 13.5 5H12.5V2H22V11.5Z" fill="#6AD9FF"/>
<path d="M17 7.75C17.1326 7.75 17.2598 7.69732 17.3536 7.60355C17.4473 7.50979 17.5 7.38261 17.5 7.25V6.25C17.5 6.11739 17.4473 5.99021 17.3536 5.89645C17.2598 5.80268 17.1326 5.75 17 5.75C16.8674 5.75 16.7402 5.80268 16.6464 5.89645C16.5527 5.99021 16.5 6.11739 16.5 6.25V7.25C16.5 7.38261 16.5527 7.50979 16.6464 7.60355C16.7402 7.69732 16.8674 7.75 17 7.75Z" fill="#6AD9FF"/>
<path d="M7 16C6.86739 16 6.74021 16.0527 6.64645 16.1464C6.55268 16.2402 6.5 16.3674 6.5 16.5V17.5C6.5 17.6326 6.55268 17.7598 6.64645 17.8536C6.74021 17.9473 6.86739 18 7 18C7.13261 18 7.25979 17.9473 7.35355 17.8536C7.44732 17.7598 7.5 17.6326 7.5 17.5V16.5C7.5 16.3674 7.44732 16.2402 7.35355 16.1464C7.25979 16.0527 7.13261 16 7 16Z" fill="#6AD9FF"/>
</svg>
