<svg width="24" height="24" viewBox="0 0 24 24" fill="none" xmlns="http://www.w3.org/2000/svg">
<g clip-path="url(#clip0_83_207)">
<path d="M11.843 8.81201C12.0688 8.90056 12.2903 8.68383 12.2155 8.45323C11.7018 6.87032 9.84199 6.27983 8.11307 7.68418C7.20364 8.42298 6.86189 8.57996 6.85327 8.58392C7.45281 9.18336 8.13775 11.1949 9.63254 11.4173C11.2792 11.7159 12.7365 10.0958 11.5442 9.35453C10.76 8.86705 9.83679 8.58387 8.84716 8.58387C9.88466 8.35001 10.9204 8.45029 11.843 8.81201Z" fill="#45D2F0"/>
<path d="M19.2993 7.68408C16.3148 5.25989 14.4115 9.08287 15.5946 8.70391C16.4349 8.43476 17.3534 8.37614 18.2749 8.58382C16.7137 8.58382 15.2746 9.29928 14.3151 10.4638C14.3939 8.63372 14.5131 7.48818 14.6513 6.63603C15.4488 6.60862 16.5116 5.96464 17.0953 4.83778C18.1016 3.0369 17.635 1.19041 17.4848 0.0252724C16.6985 0.79095 13.2637 -0.106222 11.9021 2.22706C11.3006 3.25776 11.4754 4.51199 12.1082 5.42983C12.3085 5.72039 12.7874 5.58097 12.801 5.22835C12.8605 3.69443 13.6239 2.5355 15.0471 1.89361C14.4085 2.72107 13.9891 3.64748 13.7725 4.60499C13.4358 6.09656 13.0841 7.07501 12.955 11.8291C12.9418 12.3112 13.3324 12.7103 13.8147 12.7043C14.1638 12.6999 14.4629 12.4783 14.5972 12.156C14.8014 11.6658 15.1338 11.1585 15.6746 10.6936C16.1886 11.2617 16.9707 11.564 17.78 11.4173C19.2684 11.1958 19.963 9.17988 20.5592 8.58377C20.5505 8.57991 20.2087 8.42293 19.2993 7.68408Z" fill="#45D2F0"/>
<path d="M23.6865 13.6076C22.7535 12.9746 21.738 13.4257 21.2717 13.695L15.4196 17.9782L11.993 17.9789L11.1363 17.1223H14.2832C15.2296 17.1223 16.2896 16.5058 16.2896 15.4086C16.2896 14.2438 15.2296 13.695 14.2832 13.695H13.1039C12.2279 13.695 11.2042 13.7731 10.4824 13.3867C9.79656 13.0377 9.00684 12.8391 8.16385 12.8391C6.7483 12.8391 5.48138 13.4034 4.61323 14.2934L0 18.8348L5.13985 23.9747L6.85314 21.4048H14.9493C15.8127 21.4048 16.6462 21.088 17.2916 20.5146L23.745 14.7818C24.1038 14.4631 24.0836 13.8771 23.6865 13.6076Z" fill="#45D2F0"/>
</g>
<defs>
<clipPath id="clip0_83_207">
<rect width="24" height="24" fill="white"/>
</clipPath>
</defs>
</svg>
