<svg width="24" height="24" viewBox="0 0 24 24" fill="none" xmlns="http://www.w3.org/2000/svg">
<g clip-path="url(#clip0_83_241)">
<path d="M23.987 3.435C23.984 3.413 23.98 3.394 23.974 3.373C23.951 3.287 23.914 3.207 23.852 3.146L20.853 0.146998C20.658 -0.0480023 20.341 -0.0480023 20.146 0.146998L17.147 3.146C17.086 3.207 17.049 3.287 17.025 3.373C17.019 3.394 17.015 3.413 17.012 3.435C17.01 3.457 17 3.477 17 3.5V7H7V3.5C7 3.477 6.99 3.457 6.987 3.435C6.984 3.413 6.98 3.394 6.974 3.373C6.951 3.287 6.914 3.207 6.852 3.146L3.853 0.146998C3.658 -0.0480023 3.341 -0.0480023 3.146 0.146998L0.147 3.146C0.086 3.207 0.049 3.287 0.026 3.372C0.02 3.394 0.016 3.414 0.013 3.436C0.01 3.458 0 3.477 0 3.5V23.5C0 23.776 0.224 24 0.5 24H6.5C6.776 24 7 23.776 7 23.5V18H17V23.5C17 23.776 17.224 24 17.5 24H23.5C23.776 24 24 23.776 24 23.5V3.5C24 3.477 23.99 3.457 23.987 3.435ZM2 9.5C2 9.367 2.053 9.24 2.146 9.146L3.146 8.146C3.341 7.951 3.658 7.951 3.853 8.146L4.853 9.146C4.947 9.24 5 9.367 5 9.5V11.5C5 11.776 4.776 12 4.5 12H2.5C2.224 12 2 11.776 2 11.5V9.5ZM2 15.5C2 15.367 2.053 15.24 2.146 15.146L3.146 14.146C3.341 13.951 3.658 13.951 3.853 14.146L4.853 15.146C4.947 15.24 5 15.367 5 15.5V17.5C5 17.776 4.776 18 4.5 18H2.5C2.224 18 2 17.776 2 17.5V15.5ZM5.5 22H1.5C1.224 22 1 21.776 1 21.5C1 21.224 1.224 21 1.5 21H5.5C5.776 21 6 21.224 6 21.5C6 21.776 5.776 22 5.5 22ZM17 14H7V8H17V14ZM19 9.5C19 9.367 19.053 9.24 19.146 9.146L20.146 8.146C20.341 7.951 20.658 7.951 20.853 8.146L21.853 9.146C21.947 9.24 22 9.367 22 9.5V11.5C22 11.776 21.776 12 21.5 12H19.5C19.224 12 19 11.776 19 11.5V9.5ZM19 15.5C19 15.367 19.053 15.24 19.146 15.146L20.146 14.146C20.341 13.951 20.658 13.951 20.853 14.146L21.853 15.146C21.947 15.24 22 15.367 22 15.5V17.5C22 17.776 21.776 18 21.5 18H19.5C19.224 18 19 17.776 19 17.5V15.5ZM22.5 22H18.5C18.224 22 18 21.776 18 21.5C18 21.224 18.224 21 18.5 21H22.5C22.776 21 23 21.224 23 21.5C23 21.776 22.776 22 22.5 22Z" fill="#45D2F0"/>
</g>
<defs>
<clipPath id="clip0_83_241">
<rect width="24" height="24" fill="white"/>
</clipPath>
</defs>
</svg>
