<svg width="24" height="24" viewBox="0 0 24 24" fill="none" xmlns="http://www.w3.org/2000/svg">
<g clip-path="url(#clip0_83_95)">
<path d="M3.84411 15.4309L1.57434 19.9697C1.46521 20.1878 1.47693 20.4469 1.60492 20.6542C1.73327 20.8613 1.95923 20.9874 2.20294 20.9874H5.61731L7.66589 23.7188C7.79901 23.897 8.00793 24.0001 8.22784 24.0001C8.51989 24.0001 8.75006 23.8257 8.85699 23.6115L10.9958 19.3336C8.10406 19.0571 5.5545 17.5908 3.84411 15.4309Z" fill="#45D2F0"/>
<path d="M22.4132 19.9697L20.1434 15.4309C18.433 17.5908 15.8835 19.0571 12.9917 19.3336L15.1307 23.6115C15.2375 23.8257 15.4677 24.0001 15.7597 24.0001C15.9796 24.0001 16.1887 23.897 16.3218 23.7188L18.3702 20.9874H21.7846C22.0283 20.9874 22.2543 20.8613 22.3826 20.6542C22.5106 20.4469 22.5223 20.1878 22.4132 19.9697Z" fill="#45D2F0"/>
<path d="M13.1706 6.92084L11.9938 5.04089L10.8173 6.92084C10.7208 7.07501 10.5683 7.18579 10.392 7.22992L8.24066 7.76807L9.66486 9.46802C9.78168 9.60736 9.8399 9.78662 9.82727 9.96808L9.67401 12.1804L11.7308 11.3513C11.8286 11.3119 12.0286 11.2593 12.2565 11.3513L14.3135 12.1804L14.1605 9.96808C14.148 9.78662 14.2062 9.60736 14.3231 9.46802L15.7473 7.76807L13.5959 7.22992C13.4196 7.18579 13.2671 7.07501 13.1706 6.92084Z" fill="#45D2F0"/>
<path d="M20.9813 8.98755C20.9813 4.0318 16.9495 0 11.9938 0C7.03802 0 3.00623 4.0318 3.00623 8.98755C3.00623 13.9431 7.03802 17.9751 11.9938 17.9751C16.9495 17.9751 20.9813 13.9433 20.9813 8.98755ZM17.5466 7.81L15.583 10.1537L15.7939 13.2039C15.8106 13.4456 15.7018 13.6789 15.5059 13.8214C15.3098 13.9636 15.0544 13.9951 14.8297 13.9047L11.9938 12.7615L9.15784 13.9047C9.08185 13.9352 8.77917 14.0374 8.48163 13.8214C8.28571 13.6789 8.17694 13.4456 8.1936 13.2039L8.40491 10.1537L6.44128 7.81018C6.28564 7.62433 6.23657 7.37164 6.31146 7.1413C6.38635 6.91095 6.57458 6.73517 6.80969 6.67639L9.77563 5.93445L11.3978 3.34259C11.5263 3.13733 11.7515 3.01263 11.9938 3.01263C12.236 3.01263 12.4612 3.13733 12.5898 3.34259L14.2123 5.93445L17.1782 6.67639C17.4133 6.73517 17.6016 6.91095 17.6765 7.1413C17.7513 7.37164 17.7023 7.62433 17.5466 7.81Z" fill="#45D2F0"/>
</g>
<defs>
<clipPath id="clip0_83_95">
<rect width="24" height="24" fill="white"/>
</clipPath>
</defs>
</svg>
