<svg width="24" height="24" viewBox="0 0 24 24" fill="none" xmlns="http://www.w3.org/2000/svg">
<g clip-path="url(#clip0_83_169)">
<path d="M19.8575 0H8.94252C6.65856 0 4.8 1.85856 4.8 4.14252V4.8H4.14252C1.85856 4.8 0 6.65856 0 8.94252V19.8574C0 22.1414 1.85856 24 4.14252 24H15.0574C17.1556 24 18.876 22.4258 19.145 20.4H19.8574C22.1414 20.4 24 18.5414 24 16.2575V4.14252C24 1.85856 22.1414 0 19.8575 0ZM21.6 16.2575C21.6 17.2183 20.8183 18 19.8575 18H19.2V8.94252C19.2 6.65856 17.3414 4.8 15.0575 4.8H7.2V4.14252C7.2 3.18168 7.98168 2.4 8.94252 2.4H19.8574C20.8183 2.4 21.6 3.18168 21.6 4.14252V16.2575Z" fill="#45D2F0"/>
</g>
<defs>
<clipPath id="clip0_83_169">
<rect width="24" height="24" fill="white"/>
</clipPath>
</defs>
</svg>
