<svg width="24" height="24" viewBox="0 0 24 24" fill="none" xmlns="http://www.w3.org/2000/svg">
<path d="M18 2.625C18.3501 2.625 18.6537 2.86728 18.7313 3.2087L19.1463 5.03359C19.3382 5.87768 19.9973 6.53677 20.8414 6.7287L22.6663 7.14368C23.0077 7.2213 23.25 7.52486 23.25 7.875C23.25 8.22514 23.0077 8.5287 22.6663 8.60632L20.8414 9.0213C19.9973 9.21323 19.3382 9.87233 19.1463 10.7164L18.7313 12.5413C18.6537 12.8827 18.3501 13.125 18 13.125C17.6499 13.125 17.3463 12.8827 17.2687 12.5413L16.8537 10.7164C16.6618 9.87233 16.0027 9.21323 15.1586 9.0213L13.3337 8.60632C12.9923 8.5287 12.75 8.22514 12.75 7.875C12.75 7.52486 12.9923 7.2213 13.3337 7.14368L15.1586 6.7287C16.0027 6.53677 16.6618 5.87768 16.8537 5.03359L17.2687 3.2087C17.3463 2.86728 17.6499 2.625 18 2.625Z" fill="#45D2F0"/>
<path fill-rule="evenodd" clip-rule="evenodd" d="M21.0908 10.1183L22.8895 9.70927C23.1222 10.3028 23.25 10.949 23.25 11.625V17.0137C23.25 19.4224 21.2974 21.375 18.8887 21.375C17.6311 21.375 16.4346 20.8321 15.6065 19.8857L13.6933 17.6991C12.7969 16.6746 11.2031 16.6746 10.3067 17.6991L8.39351 19.8857C7.56536 20.8321 6.36893 21.375 5.11129 21.375C2.70262 21.375 0.75 19.4224 0.75 17.0137V11.625C0.75 8.7255 3.1005 6.375 6 6.375H12.3748C11.9143 6.72071 11.625 7.27005 11.625 7.875C11.625 8.75036 12.2307 9.50925 13.0843 9.70331L14.9092 10.1183C15.3312 10.2142 15.6607 10.5438 15.7567 10.9658L16.1717 12.7907C16.3658 13.6443 17.1246 14.25 18 14.25C18.8754 14.25 19.6342 13.6443 19.8283 12.7907L20.2433 10.9658C20.3393 10.5438 20.6688 10.2142 21.0908 10.1183ZM4.5 12.375C4.5 11.9608 4.83578 11.625 5.25 11.625H6V10.875C6 10.4608 6.33578 10.125 6.75 10.125C7.16422 10.125 7.5 10.4608 7.5 10.875V11.625H8.25C8.66422 11.625 9 11.9608 9 12.375C9 12.7892 8.66422 13.125 8.25 13.125H7.5V13.875C7.5 14.2892 7.16422 14.625 6.75 14.625C6.33578 14.625 6 14.2892 6 13.875V13.125H5.25C4.83578 13.125 4.5 12.7892 4.5 12.375Z" fill="#45D2F0"/>
</svg>
