<svg width="24" height="24" viewBox="0 0 24 24" fill="none" xmlns="http://www.w3.org/2000/svg">
<g clip-path="url(#clip0_83_227)">
<path d="M5.98639 18.223C5.00766 17.3416 4.30161 16.285 3.83902 15.1504C2.61196 12.1412 3.18654 8.56224 5.58224 6.0935L7.7929 8.30417C7.91464 8.4259 8.13376 8.33825 8.16297 8.15809L9.37056 0.2552C9.39004 0.123728 9.27804 0.011734 9.14657 0.0312113L1.23881 1.2388C1.05865 1.26802 0.971001 1.48713 1.09273 1.60887L3.30827 3.8244C-0.348582 7.56403 -0.971854 13.1735 1.42872 17.5559C2.14937 18.8754 3.14758 20.083 4.41847 21.0958C6.58045 22.8147 9.23909 23.6376 11.8783 23.5841L12.3749 20.3362C10.101 20.531 7.76369 19.8298 5.98639 18.223Z" fill="#45D2F0"/>
<path d="M20.6917 20.1755C24.3486 16.4359 24.9718 10.8265 22.5713 6.44409C21.8506 5.12451 20.8524 3.91692 19.5815 2.9041C17.4195 1.18523 14.7609 0.362321 12.1217 0.415884L11.6251 3.66371C13.8942 3.46894 16.2363 4.17012 18.0136 5.77699C18.9923 6.65834 19.6984 7.71498 20.161 8.84953C21.388 11.8588 20.8134 15.4377 18.4177 17.9064L16.2071 15.6958C16.0853 15.574 15.8662 15.6617 15.837 15.8419L14.6294 23.7447C14.6099 23.8762 14.7219 23.9882 14.8534 23.9687L22.7612 22.7611C22.9413 22.7319 23.0241 22.5128 22.9073 22.3911L20.6917 20.1755Z" fill="#45D2F0"/>
</g>
<defs>
<clipPath id="clip0_83_227">
<rect width="24" height="24" fill="white"/>
</clipPath>
</defs>
</svg>
