<svg width="24" height="24" viewBox="0 0 24 24" fill="none" xmlns="http://www.w3.org/2000/svg">
<path fill-rule="evenodd" clip-rule="evenodd" d="M16.75 10.25H20C20.257 10.25 20.508 10.276 20.75 10.325V3C20.75 2.033 19.967 1.25 19 1.25H11C10.033 1.25 9.25 2.033 9.25 3V3.25H13.5C14.362 3.25 15.189 3.592 15.798 4.202C16.408 4.811 16.75 5.638 16.75 6.5V10.25Z" fill="#45D2F0"/>
<path fill-rule="evenodd" clip-rule="evenodd" d="M3.25 6.825C3.492 6.776 3.743 6.75 4 6.75H10.471C11.682 6.75 12.818 7.335 13.522 8.32L14.826 10.145C14.873 10.211 14.949 10.25 15.029 10.25H15.75V6.5C15.75 5.903 15.513 5.331 15.091 4.909C14.669 4.487 14.097 4.25 13.5 4.25H5C4.033 4.25 3.25 5.034 3.25 6V6.825Z" fill="#45D2F0"/>
<path fill-rule="evenodd" clip-rule="evenodd" d="M20 22.75C21.518 22.75 22.75 21.518 22.75 20V14C22.75 12.482 21.518 11.25 20 11.25H15.029C14.626 11.25 14.247 11.055 14.012 10.727L12.709 8.902C12.192 8.179 11.359 7.75 10.471 7.75C8.416 7.75 4 7.75 4 7.75C2.482 7.75 1.25 8.982 1.25 10.5V20C1.25 21.518 2.482 22.75 4 22.75H20ZM6 18.75H9C9.414 18.75 9.75 18.414 9.75 18C9.75 17.586 9.414 17.25 9 17.25H6C5.586 17.25 5.25 17.586 5.25 18C5.25 18.414 5.586 18.75 6 18.75ZM6 16.25H9C9.414 16.25 9.75 15.914 9.75 15.5C9.75 15.086 9.414 14.75 9 14.75H6C5.586 14.75 5.25 15.086 5.25 15.5C5.25 15.914 5.586 16.25 6 16.25Z" fill="#45D2F0"/>
</svg>
