<svg width="24" height="24" viewBox="0 0 24 24" fill="none" xmlns="http://www.w3.org/2000/svg">
<path d="M18.765 0.75H5.23497C3.81751 0.75 2.66998 1.90499 2.66998 3.31499V20.7825V20.7975C2.685 22.155 3.78748 23.25 5.14498 23.25H16.3125C17.73 23.25 18.8775 22.095 18.8775 20.685V19.7925C20.2425 19.7325 21.33 18.615 21.33 17.2425V3.31499C21.33 1.90499 20.1825 0.75 18.765 0.75ZM17.43 14.085C17.28 14.235 17.0925 14.31 16.8975 14.31C16.71 14.31 16.515 14.235 16.365 14.085L15.3675 13.0875C14.745 13.5 14.0325 13.7025 13.3125 13.7025C12.36 13.7025 11.4075 13.335 10.68 12.6075C9.97498 11.91 9.59247 10.9725 9.59247 9.97499C9.59247 8.97748 9.97498 8.04748 10.68 7.34248C11.385 6.63748 12.3225 6.24747 13.3125 6.24747C14.31 6.24747 15.2475 6.63748 15.9525 7.34248C16.6575 8.04748 17.04 8.97748 17.04 9.97499C17.04 10.7175 16.83 11.4225 16.425 12.03L17.43 13.0275C17.7225 13.32 17.7225 13.7925 17.43 14.085ZM4.16998 3.31499C4.16998 2.73001 4.64999 2.25 5.23497 2.25H5.90248V18.3075H5.14498C4.80001 18.3075 4.47001 18.375 4.16998 18.51V3.31499ZM17.3775 20.685C17.3775 21.27 16.905 21.75 16.3125 21.75H5.14498C4.60499 21.75 4.16998 21.315 4.16998 20.775C4.16998 20.2425 4.605 19.8075 5.14498 19.8075H17.3775L17.3775 20.685Z" fill="#45D2F0"/>
<path d="M11.745 8.40005C11.3175 8.82005 11.0925 9.38255 11.0925 9.97503C11.0925 10.5675 11.3175 11.13 11.7375 11.55C12.6075 12.42 14.025 12.42 14.8875 11.55C15.315 11.13 15.54 10.5675 15.54 9.97503C15.54 9.38255 15.315 8.82005 14.8875 8.40005C14.0475 7.56001 12.585 7.56001 11.745 8.40005Z" fill="#45D2F0"/>
</svg>
