<svg width="24" height="24" viewBox="0 0 24 24" fill="none" xmlns="http://www.w3.org/2000/svg">
<path d="M20.5246 8.64233H11.2846C9.87691 8.64233 8.7323 9.79156 8.7323 11.1992V20.4346C8.7323 21.8423 9.87691 22.9916 11.2846 22.9916H20.5246C21.9323 22.9916 23.0769 21.8423 23.0769 20.4346V11.1992C23.0769 9.79156 21.9323 8.64233 20.5246 8.64233ZM13.1862 14.7716C12.2585 14.7716 11.5062 14.0192 11.5062 13.0962C11.5062 12.1685 12.2585 11.4162 13.1862 11.4162C14.1092 11.4162 14.8615 12.1685 14.8615 13.0962C14.8615 14.0192 14.1092 14.7716 13.1862 14.7716ZM18.6231 20.2131C17.7 20.2131 16.9477 19.4608 16.9477 18.5377C16.9477 17.61 17.7 16.8577 18.6231 16.8577C19.5508 16.8577 20.2985 17.61 20.2985 18.5377C20.2985 19.4608 19.5508 20.2131 18.6231 20.2131Z" fill="#45D2F0"/>
<path d="M11.2846 7.71921H15.2677V3.56074C15.2677 2.15306 14.1231 1.00842 12.7154 1.00842H3.47539C2.0677 1.00842 0.923096 2.15306 0.923096 3.56074V12.8008C0.923096 14.2084 2.0677 15.353 3.47539 15.353H7.80924V11.1992C7.80924 9.27921 9.36924 7.71921 11.2846 7.71921ZM10.8185 3.78227C11.7416 3.78227 12.4939 4.53458 12.4939 5.45766C12.4939 6.38536 11.7416 7.13305 10.8185 7.13305C9.89078 7.13305 9.13847 6.38536 9.13847 5.45766C9.13847 4.53458 9.89078 3.78227 10.8185 3.78227ZM5.37692 12.5746C4.44926 12.5746 3.69695 11.8269 3.69695 10.8992C3.69695 9.97152 4.44926 9.22383 5.37692 9.22383C6.3 9.22383 7.05231 9.97152 7.05231 10.8992C7.05231 11.8269 6.3 12.5746 5.37692 12.5746ZM5.37692 7.13305C4.44926 7.13305 3.69695 6.38536 3.69695 5.45766C3.69695 4.53458 4.44926 3.78227 5.37692 3.78227C6.3 3.78227 7.05231 4.53458 7.05231 5.45766C7.05231 6.38536 6.3 7.13305 5.37692 7.13305Z" fill="#45D2F0"/>
</svg>
