<svg width="24" height="24" viewBox="0 0 24 24" fill="none" xmlns="http://www.w3.org/2000/svg">
<path d="M12 14C13.6569 14 15 12.6569 15 11C15 9.34315 13.6569 8 12 8C10.3431 8 9 9.34315 9 11C9 12.6569 10.3431 14 12 14Z" fill="#45D2F0"/>
<path d="M15 16H9C7.896 16 7 16.896 7 18V22H17V18C17 16.896 16.104 16 15 16Z" fill="#45D2F0"/>
<path d="M22 12H16.384C16.151 13.003 15.575 13.875 14.794 14.5H15C16.93 14.5 18.5 16.07 18.5 18H24V14C24 12.896 23.104 12 22 12Z" fill="#45D2F0"/>
<path d="M9.207 14.5C8.425 13.875 7.851 13.003 7.617 12H2C0.896 12 0 12.896 0 14V18H5.5C5.5 16.07 7.07 14.5 9 14.5H9.207Z" fill="#45D2F0"/>
<path d="M5 10C6.65685 10 8 8.65685 8 7C8 5.34315 6.65685 4 5 4C3.34315 4 2 5.34315 2 7C2 8.65685 3.34315 10 5 10Z" fill="#45D2F0"/>
<path d="M19 10C20.6569 10 22 8.65685 22 7C22 5.34315 20.6569 4 19 4C17.3431 4 16 5.34315 16 7C16 8.65685 17.3431 10 19 10Z" fill="#45D2F0"/>
</svg>
