<svg width="24" height="24" viewBox="0 0 24 24" fill="none" xmlns="http://www.w3.org/2000/svg">
<path fill-rule="evenodd" clip-rule="evenodd" d="M12.0138 0.599976H11.9908C11.9678 0.599976 11.9425 0.599976 11.9172 0.604581C11.5445 0.645987 11.2662 0.965749 11.2731 1.33842V2.79457C11.2639 3.19486 11.5813 3.52841 11.9839 3.53762C12.3865 3.54682 12.7177 3.22936 12.7269 2.82678V1.33842C12.7338 0.938145 12.4141 0.606884 12.0138 0.599976ZM6.36628 4.85576C6.35707 4.84886 6.35018 4.84196 6.34327 4.83506L5.31269 3.80907C5.17697 3.66875 4.98833 3.58592 4.79279 3.58592C4.76749 3.58592 4.74219 3.58592 4.71688 3.59053C4.3166 3.63193 4.02905 3.9908 4.07047 4.39107C4.08886 4.55901 4.16708 4.71544 4.28669 4.83506L5.31269 5.86565C5.59104 6.1555 6.05343 6.167 6.34327 5.88634C6.63543 5.608 6.64463 5.14792 6.36628 4.85576ZM19.7203 3.80677C19.5799 3.66414 19.3867 3.58592 19.1865 3.59053C18.9979 3.59513 18.8208 3.67564 18.6874 3.80907L17.6568 4.83506C17.3669 5.1134 17.3577 5.57579 17.6361 5.86565C17.9144 6.15781 18.3745 6.167 18.6666 5.88865C18.6735 5.88175 18.6805 5.87254 18.6874 5.86565L19.7133 4.83506C19.9986 4.5544 20.0032 4.09432 19.7203 3.80677ZM3.30672 10.7955H1.81604C1.41577 10.7863 1.08221 11.1037 1.07301 11.5063C1.06381 11.9089 1.38356 12.2401 1.78385 12.2493H3.27221C3.67479 12.2585 4.00835 11.9411 4.01755 11.5385C4.02676 11.1382 3.707 10.8046 3.30672 10.7955ZM22.2162 10.7955H20.7278C20.3275 10.7863 19.994 11.1037 19.9848 11.5063C19.9756 11.9089 20.2931 12.2401 20.6956 12.2493H22.184C22.5843 12.2585 22.9178 11.9411 22.927 11.5385C22.9362 11.1382 22.6165 10.8046 22.2162 10.7955ZM6.36398 17.1814C6.22136 17.0342 6.02583 16.9537 5.82109 16.9583H5.81187C5.62325 16.9652 5.44381 17.0434 5.31269 17.1791L4.28669 18.2097C3.98305 18.472 3.94623 18.9297 4.20849 19.2357C4.46844 19.5394 4.92852 19.5762 5.23448 19.3139C5.26208 19.2909 5.28969 19.2633 5.31269 19.2357L6.34327 18.2097C6.63313 17.9314 6.64234 17.4713 6.36398 17.1814ZM19.8007 18.2971C19.7732 18.2649 19.7455 18.2373 19.7133 18.2097L18.6874 17.1791C18.5516 17.0388 18.363 16.9583 18.1675 16.9583C17.7649 16.956 17.4382 17.2803 17.4359 17.6829C17.4336 17.8808 17.5141 18.0717 17.6568 18.2097L18.6874 19.2357C18.9473 19.5417 19.4074 19.5808 19.7133 19.3231C20.0216 19.0632 20.0607 18.6054 19.8007 18.2971Z" fill="#45D2F0"/>
<path fill-rule="evenodd" clip-rule="evenodd" d="M14.6646 22.5368C14.6562 23.0254 14.2513 23.4108 13.7627 23.3996H10.2387C9.76683 23.4136 9.36476 23.0534 9.33122 22.5815C9.29495 22.0956 9.66072 21.6712 10.1466 21.6349C10.1494 21.6349 10.1494 21.6321 10.1494 21.6321C10.1801 21.6321 10.208 21.6321 10.2387 21.6349H13.8017C14.2904 21.646 14.6758 22.0481 14.6646 22.5368Z" fill="#45D2F0"/>
<path fill-rule="evenodd" clip-rule="evenodd" d="M12 4.9754C8.39296 4.9754 5.453 7.91534 5.453 11.5224C5.453 13.7745 6.62623 15.7322 8.36303 16.9077V19.4865C8.36303 19.8891 8.6897 20.2134 9.08997 20.2134H14.9101C15.3103 20.2134 15.637 19.8891 15.637 19.4865V16.9077C17.3738 15.7322 18.547 13.7745 18.547 11.5224C18.547 7.91534 15.6071 4.9754 12 4.9754ZM11.9977 9.3416C10.7831 9.3416 9.81691 10.3124 9.81691 11.5247C9.81691 11.9273 9.49255 12.2539 9.08997 12.2539C8.6874 12.2539 8.36073 11.9273 8.36073 11.5247C8.36073 9.52563 9.99635 7.88543 11.9977 7.88543C12.4003 7.88543 12.7247 8.2098 12.7247 8.61237C12.7247 9.01495 12.4003 9.3416 11.9977 9.3416Z" fill="#45D2F0"/>
</svg>
