<svg width="24" height="24" viewBox="0 0 24 24" fill="none" xmlns="http://www.w3.org/2000/svg">
<g clip-path="url(#clip0_83_134)">
<path d="M0.00546871 10.456C-0.0466563 10.8755 0.280484 11.2458 0.703203 11.2458H3.5638C3.90716 11.2458 4.20031 10.9978 4.25717 10.6591C4.80772 7.38045 7.38041 4.80772 10.6591 4.25722C10.9977 4.20036 11.2458 3.9072 11.2458 3.5638V0.703203C11.2458 0.280484 10.8755 -0.0466563 10.4559 0.00546871C7.81827 0.333266 5.32648 1.55291 3.43967 3.43967C1.55291 5.32648 0.333266 7.81827 0.00546871 10.456Z" fill="#45D2F0"/>
<path d="M16.4801 18.3131C15.1456 19.266 13.5807 19.7696 11.9548 19.7696C8.12881 19.7696 4.89153 17.0279 4.25722 13.2503C4.20036 12.9117 3.9072 12.6636 3.56384 12.6636H0.703203C0.280484 12.6636 -0.0466563 13.0339 0.00546871 13.4534V13.4535C0.752703 19.4659 5.88978 24 11.9548 24C14.6567 24 17.2118 23.123 19.3441 21.4639C19.6778 21.2042 19.7085 20.7108 19.4095 20.4117L17.3859 18.3882C17.1428 18.1452 16.7598 18.1134 16.4801 18.3131Z" fill="#45D2F0"/>
<path d="M13.2503 4.25722C17.0278 4.89153 19.7696 8.12881 19.7696 11.9548C19.7696 13.5807 19.266 15.1455 18.3131 16.4801C18.1134 16.7598 18.1452 17.1428 18.3882 17.3858L20.4119 19.4095C20.7109 19.7085 21.2042 19.6778 21.4639 19.3441L21.464 19.3441C23.123 17.2119 24 14.6567 24 11.9548C24 5.88978 19.4659 0.752703 13.4535 0.00546871H13.4534C13.0339 -0.0466563 12.6636 0.280484 12.6636 0.703203V3.5638C12.6636 3.9072 12.9116 4.20036 13.2503 4.25722Z" fill="#45D2F0"/>
<path d="M12.423 7.12329H11.4849C11.0966 7.12329 10.7818 7.4381 10.7818 7.82642V16.0294H13.1261V7.82642C13.1261 7.4381 12.8113 7.12329 12.423 7.12329Z" fill="#45D2F0"/>
<path d="M14.5323 16.0294H16.1735C16.5618 16.0294 16.8767 15.7146 16.8767 15.3263V9.70135C16.8767 9.31304 16.5618 8.99823 16.1735 8.99823H14.5323V16.0294Z" fill="#45D2F0"/>
<path d="M9.37555 10.8732H7.73615C7.34783 10.8732 7.03302 11.188 7.03302 11.5764V15.3263C7.03302 15.7146 7.34783 16.0294 7.73615 16.0294H9.37555V10.8732Z" fill="#45D2F0"/>
</g>
<defs>
<clipPath id="clip0_83_134">
<rect width="24" height="24" fill="white"/>
</clipPath>
</defs>
</svg>
