<svg width="24" height="24" viewBox="0 0 24 24" fill="none" xmlns="http://www.w3.org/2000/svg">
<g clip-path="url(#clip0_83_113)">
<path d="M0 12.7734V15.1734C0 15.8361 0.537281 16.3734 1.2 16.3734H1.59998V11.5734H1.2C0.537281 11.5734 0 12.1106 0 12.7734Z" fill="#45D2F0"/>
<path d="M22.8 11.5734H22.4V16.3734H22.8C23.4627 16.3734 24 15.8361 24 15.1734V12.7734C24 12.1106 23.4628 11.5734 22.8 11.5734Z" fill="#45D2F0"/>
<path d="M14 2.37336C13.9976 3.32296 13.3299 4.14088 12.4 4.33335V6.37335H11.6V4.33335C10.5688 4.12288 9.87722 3.14919 10.018 2.10622C10.1587 1.06325 11.0838 0.307815 12.1339 0.378268C13.184 0.448722 13.9998 1.32092 14 2.37336Z" fill="#45D2F0"/>
<path d="M16.8 13.9734C17.4627 13.9734 18 13.4361 18 12.7734C18 12.1106 17.4627 11.5734 16.8 11.5734C16.1372 11.5734 15.6 12.1106 15.6 12.7734C15.6 13.4361 16.1372 13.9734 16.8 13.9734Z" fill="#45D2F0"/>
<path d="M7.2 13.9734C7.86274 13.9734 8.4 13.4361 8.4 12.7734C8.4 12.1106 7.86274 11.5734 7.2 11.5734C6.53726 11.5734 6 12.1106 6 12.7734C6 13.4361 6.53726 13.9734 7.2 13.9734Z" fill="#45D2F0"/>
<path d="M19.2 7.1734H4.80002C3.47454 7.1734 2.40002 8.24792 2.40002 9.5734V18.3734C2.40002 19.6956 3.46943 20.7687 4.79163 20.7734C4.89893 20.772 5.00234 20.8134 5.07898 20.8885C5.15562 20.9636 5.19921 21.0661 5.20006 21.1734V23.2258C5.19987 23.3734 5.28106 23.5092 5.41118 23.5789C5.54131 23.6486 5.69927 23.641 5.82204 23.559L9.80004 20.9078C9.93096 20.8205 10.0847 20.7738 10.242 20.7734H19.2C20.5255 20.7734 21.6 19.6989 21.6 18.3734V9.57335C21.6 8.24792 20.5255 7.1734 19.2 7.1734ZM7.20002 14.7734C6.09546 14.7734 5.20001 13.8779 5.20001 12.7734C5.20001 11.6688 6.09546 10.7734 7.20002 10.7734C8.30459 10.7734 9.20004 11.6688 9.20004 12.7734C9.19868 13.8774 8.30402 14.7721 7.20002 14.7734ZM14.3392 16.1854C14.314 16.2258 13.702 17.1733 12 17.1733C10.298 17.1733 9.68604 16.2258 9.66082 16.1854C9.54752 15.9992 9.60415 15.7566 9.78809 15.6398C9.97202 15.523 10.2157 15.5749 10.336 15.7565C10.36 15.7909 10.7784 16.3733 12 16.3733C13.2324 16.3733 13.6476 15.7809 13.6644 15.7557C13.7868 15.5742 14.0314 15.5233 14.216 15.6409C14.3992 15.7581 14.4541 16.0008 14.3392 16.1854ZM16.8 14.7734C15.6955 14.7734 14.8 13.8779 14.8 12.7734C14.8 11.6688 15.6955 10.7734 16.8 10.7734C17.9046 10.7734 18.8 11.6688 18.8 12.7734C18.7987 13.8774 17.904 14.7721 16.8 14.7734Z" fill="#45D2F0"/>
</g>
<defs>
<clipPath id="clip0_83_113">
<rect width="24" height="24" fill="white"/>
</clipPath>
</defs>
</svg>
