<svg width="176" height="51" viewBox="0 0 176 51" fill="none" xmlns="http://www.w3.org/2000/svg">
<g clip-path="url(#clip0_363_318)">
<path d="M17.7868 22.446L24.0018 16.2336L30.2195 22.4511L33.8338 18.8343L24.0018 9L14.1699 18.8318L17.7868 22.446Z" fill="#8A8A8A"/>
<path d="M7.99902 25.0005L11.6145 21.3851L15.23 25.0005L11.6145 28.616L7.99902 25.0005Z" fill="#8A8A8A"/>
<path d="M17.7869 27.554L24.002 33.769L30.2196 27.5515L33.8365 31.1632L33.8339 31.1657L24.002 41L14.1701 31.1708L14.165 31.1657L17.7869 27.554Z" fill="#8A8A8A"/>
<path d="M32.7676 25.0014L36.3831 21.386L39.9986 25.0014L36.3831 28.6169L32.7676 25.0014Z" fill="#8A8A8A"/>
<path d="M27.6689 24.9987L24.0015 21.3289L21.2895 24.0408L20.9761 24.3517L20.3342 24.9937L20.3291 24.9987L20.3342 25.0063L24.0015 28.6711L27.6689 25.0013L27.6715 24.9987H27.6689Z" fill="#8A8A8A"/>
<path d="M45.6396 16.7542H53.5052C55.4564 16.7542 56.9325 17.2597 57.9333 18.2707C58.3104 18.6441 58.6077 19.0903 58.8071 19.5821C59.0066 20.0739 59.104 20.6011 59.0935 21.1317V21.1798C59.1002 21.6144 59.0397 22.0476 58.914 22.4637C58.802 22.822 58.6395 23.1624 58.4313 23.4747C58.2371 23.7692 58.0023 24.0347 57.7337 24.2633C57.4712 24.4891 57.1837 24.6842 56.8769 24.8446C57.7619 25.1528 58.5577 25.6735 59.1946 26.361C59.7573 27.0013 60.0387 27.8859 60.0387 29.0149V29.0629C60.0547 29.7679 59.9013 30.4665 59.5914 31.1C59.291 31.6837 58.8508 32.1838 58.3099 32.5558C57.6985 32.9657 57.0176 33.2612 56.3006 33.4278C55.4487 33.6298 54.5753 33.7274 53.6998 33.7184H45.6396V16.7542ZM52.7166 23.6137C53.3971 23.6466 54.0743 23.5002 54.6805 23.1891C54.9168 23.051 55.1098 22.8495 55.2376 22.6074C55.3654 22.3653 55.4228 22.0923 55.4033 21.8192V21.7712C55.4158 21.5196 55.3647 21.2689 55.2547 21.0423C55.1447 20.8157 54.9794 20.6204 54.774 20.4746C54.3544 20.1764 53.7487 20.0273 52.9567 20.0273H49.2767V23.6137H52.7166ZM53.7099 30.4504C54.3879 30.4884 55.0627 30.3333 55.6561 30.0031C55.8872 29.8546 56.0743 29.6468 56.1979 29.4014C56.3215 29.1561 56.377 28.8821 56.3587 28.6079V28.5599C56.3678 28.2994 56.3129 28.0405 56.1988 27.8061C56.0847 27.5717 55.9148 27.3689 55.7041 27.2153C55.2694 26.8783 54.5667 26.7098 53.5962 26.7098H49.2767V30.4504H53.7099Z" fill="#8A8A8A"/>
<path d="M64.7246 16.7542H68.4577V33.7235H64.7246V16.7542Z" fill="#8A8A8A"/>
<path d="M74.1064 16.7542H77.5489L85.5054 27.1976V16.7542H89.1905V33.7235H86.0134L77.7966 22.9363V33.7235H74.1064V16.7542Z" fill="#8A8A8A"/>
<path d="M100.494 16.6329H103.931L111.203 33.7235H107.305L105.754 29.9171H98.578L97.0261 33.7235H93.2197L100.494 16.6329ZM104.422 26.6214L102.162 21.1166L99.9125 26.6214H104.422Z" fill="#8A8A8A"/>
<path d="M115.239 16.7542H118.682L126.633 27.1976V16.7542H130.318V33.7235H127.141L118.924 22.9363V33.7235H115.239V16.7542Z" fill="#8A8A8A"/>
<path d="M143.754 34.0217C142.564 34.0319 141.385 33.8015 140.286 33.3444C139.252 32.9174 138.314 32.2877 137.527 31.4925C136.74 30.6973 136.12 29.7526 135.704 28.7141C135.265 27.6278 135.042 26.4661 135.049 25.2944V25.2464C135.03 22.9369 135.918 20.7122 137.524 19.0517C138.313 18.2405 139.259 17.5975 140.304 17.1611C141.44 16.6904 142.66 16.4557 143.89 16.4711C144.618 16.4657 145.344 16.5309 146.059 16.6657C146.67 16.7814 147.268 16.9601 147.843 17.199C148.365 17.4186 148.861 17.6949 149.322 18.023C149.772 18.343 150.195 18.6997 150.586 19.0896L148.212 21.8293C147.606 21.2698 146.925 20.7962 146.19 20.4215C145.468 20.0762 144.676 19.9032 143.875 19.916C143.209 19.9089 142.549 20.0436 141.939 20.3112C141.329 20.5788 140.783 20.973 140.337 21.4679C139.894 21.9615 139.548 22.5332 139.316 23.1537C139.072 23.8095 138.95 24.504 138.954 25.2035V25.2515C138.952 25.95 139.074 26.6433 139.316 27.2987C139.545 27.9215 139.888 28.4964 140.327 28.9946C140.769 29.4956 141.314 29.8957 141.924 30.1678C142.535 30.4399 143.197 30.5777 143.865 30.5718C144.716 30.5986 145.561 30.4154 146.324 30.0385C147.051 29.6423 147.723 29.1529 148.324 28.5827L150.699 30.9837C150.28 31.439 149.826 31.8615 149.342 32.2475C148.867 32.6234 148.35 32.9447 147.803 33.2054C147.22 33.4799 146.605 33.6827 145.973 33.8094C145.242 33.9559 144.499 34.027 143.754 34.0217Z" fill="#8A8A8A"/>
<path d="M155.105 16.7542H167.877V20.0753H158.778V23.5177H166.79V26.8387H158.791V30.4024H168.003V33.7235H155.113L155.105 16.7542Z" fill="#8A8A8A"/>
</g>
<defs>
<clipPath id="clip0_363_318">
<rect width="160" height="32" fill="white" transform="translate(8 9)"/>
</clipPath>
</defs>
</svg>
