<svg width="176" height="51" viewBox="0 0 176 51" fill="none" xmlns="http://www.w3.org/2000/svg">
<g clip-path="url(#clip0_362_251)">
<path d="M149.295 34.6449C149.422 34.7786 149.327 34.9999 149.143 34.9999H144.544C144.487 34.9999 144.432 34.9761 144.392 34.9342L138.28 28.459L132.101 34.935C132.061 34.9765 132.006 34.9999 131.949 34.9999H127.35C127.166 34.9999 127.07 34.7786 127.198 34.6449L135.624 25.8026L127.484 17.2105C127.357 17.0767 127.451 16.8559 127.636 16.8559H132.236C132.294 16.8559 132.349 16.8799 132.388 16.922L138.235 23.1462L144.105 16.9217C144.144 16.8797 144.199 16.8559 144.257 16.8559H148.857C149.041 16.8559 149.136 17.0767 149.009 17.2105L140.869 25.8026L149.295 34.6449Z" fill="#8A8A8A"/>
<path d="M105.697 34.9997C105.536 34.9997 105.406 34.8691 105.406 34.7082V17.1481C105.406 16.9871 105.536 16.8566 105.697 16.8566H123.071C123.232 16.8566 123.362 16.9871 123.362 17.1481V19.6593C123.362 19.8203 123.232 19.9508 123.071 19.9508H109.619V23.9943H117.685C117.846 23.9943 117.976 24.1248 117.976 24.2858V26.797C117.976 26.958 117.846 27.0884 117.685 27.0884H109.619V31.5891H123.247C123.408 31.5891 123.538 31.7195 123.538 31.8805V34.7082C123.538 34.8691 123.408 34.9997 123.247 34.9997H105.697Z" fill="#8A8A8A"/>
<path d="M74.9326 34.9997C74.7719 34.9997 74.6416 34.8691 74.6416 34.7082V17.1481C74.6416 16.9871 74.7719 16.8566 74.9326 16.8566H78.5637C78.7245 16.8566 78.8548 16.9871 78.8548 17.1481V34.7082C78.8548 34.8691 78.7245 34.9997 78.5637 34.9997H74.9326Z" fill="#8A8A8A"/>
<path d="M54.2765 34.9997C54.1157 34.9997 53.9854 34.8691 53.9854 34.7082V17.1481C53.9854 16.9871 54.1157 16.8566 54.2765 16.8566H71.4397C71.6004 16.8566 71.7307 16.9871 71.7307 17.1481V19.7296C71.7307 19.8906 71.6004 20.0211 71.4397 20.0211H58.1986V24.803H65.5265C65.6871 24.803 65.8175 24.9335 65.8175 25.0945V27.8166C65.8175 27.9776 65.6871 28.1081 65.5265 28.1081H58.1986V34.7082C58.1986 34.8691 58.0683 34.9997 57.9076 34.9997H54.2765Z" fill="#8A8A8A"/>
<path d="M43.0098 20.0914V34.7082C43.0098 34.8691 42.8795 34.9997 42.7188 34.9997H39.0877C38.927 34.9997 38.7966 34.8691 38.7966 34.7082V20.0914H31.0576C30.8969 20.0914 30.7666 19.9609 30.7666 19.7999V17.1481C30.7666 16.9871 30.8969 16.8566 31.0576 16.8566H50.7839C50.9447 16.8566 51.075 16.9871 51.075 17.1481V19.7999C51.075 19.9609 50.9447 20.0914 50.7839 20.0914H43.0098Z" fill="#8A8A8A"/>
<path d="M23.9336 34.9997C23.7729 34.9997 23.6426 34.8691 23.6426 34.7082V17.1481C23.6426 16.9871 23.7729 16.8566 23.9336 16.8566H27.5647C27.7255 16.8566 27.8558 16.9871 27.8558 17.1481V34.7082C27.8558 34.8691 27.7255 34.9997 27.5647 34.9997H23.9336Z" fill="#8A8A8A"/>
<path fill-rule="evenodd" clip-rule="evenodd" d="M1 17.1481C1 16.9871 1.13032 16.8566 1.29108 16.8566H16.8064C18.8963 16.8566 20.5904 18.5532 20.5904 20.6461V21.8572C20.5904 23.9501 18.8963 25.6467 16.8064 25.6467H16.9479C19.0377 25.6467 20.7319 27.3433 20.7319 29.4361V31.2105C20.7319 33.3033 19.0377 34.9999 16.9479 34.9999H1.29108C1.13032 34.9999 1 34.8695 1 34.7085V17.1481ZM5.14041 19.8108H14.9469C15.9115 19.8108 16.6934 20.5938 16.6934 21.5598V22.386C16.6934 23.3519 15.9115 24.135 14.9469 24.135H5.14041V19.8108ZM5.14041 27.1221H15.0521C16.0167 27.1221 16.7987 27.9052 16.7987 28.8712V29.9806C16.7987 30.9466 16.0167 31.7296 15.0521 31.7296H5.14041V27.1221Z" fill="#8A8A8A"/>
<path d="M81.7656 34.7081V17.1481C81.7656 16.9871 81.896 16.8566 82.0568 16.8566H84.5344C84.6054 16.8566 84.674 16.8826 84.7273 16.9298L98.7036 29.3182V17.1481C98.7036 16.9871 98.8338 16.8566 98.9946 16.8566H102.205C102.365 16.8566 102.496 16.9871 102.496 17.1481V34.7081C102.496 34.8691 102.365 34.9997 102.205 34.9997H99.7268C99.656 34.9997 99.587 34.9735 99.5337 34.9262L85.5576 22.5055V34.7081C85.5576 34.8691 85.4272 34.9997 85.2665 34.9997H82.0568C81.896 34.9997 81.7656 34.8691 81.7656 34.7081Z" fill="#8A8A8A"/>
<path d="M152.797 27.6939C152.613 24.7208 153.86 21.416 156.428 18.844C162.013 13.2516 173.643 14.0354 173.709 14.0399C173.677 14.0861 165.175 26.4306 155.1 27.5852C154.322 27.6744 153.552 27.7095 152.797 27.6939Z" fill="white"/>
<path d="M153.977 31.4952C154.264 31.9546 154.604 32.3847 154.997 32.7785C158.445 36.2308 164.675 35.5891 168.912 31.3455C174.512 25.7371 173.709 14.0399 173.709 14.0399C173.678 14.1093 167.583 27.79 157.898 30.7741C156.583 31.1791 155.265 31.4151 153.977 31.4952Z" fill="white"/>
</g>
<defs>
<clipPath id="clip0_362_251">
<rect width="173" height="21" fill="white" transform="translate(1 14)"/>
</clipPath>
</defs>
</svg>
