<svg width="176" height="51" viewBox="0 0 176 51" fill="none" xmlns="http://www.w3.org/2000/svg">
<path d="M111.401 36.0694V7.79411H117.083V36.0694H111.401Z" fill="white"/>
<path d="M45.181 44.4684H33V16.1932H44.6912C50.3732 16.1932 53.6839 19.2907 53.6839 24.1359C53.6839 27.2722 51.5576 29.2991 50.0859 29.9739C51.8426 30.7678 54.0913 32.5544 54.0913 36.3289C54.0913 41.6089 50.3732 44.4684 45.181 44.4684ZM44.2414 21.1184H38.6819V27.6313H44.2414C46.6528 27.6313 48.002 26.3205 48.002 24.3738C48.002 22.4292 46.6528 21.1184 44.2414 21.1184ZM44.6088 32.5955H38.6819V39.5453H44.6088C47.1848 39.5453 48.4094 37.9577 48.4094 36.0499C48.4094 34.1443 47.1825 32.5955 44.6088 32.5955Z" fill="#8A8A8A"/>
<path d="M71.4219 32.8724V44.4684H65.78V32.8724L57.0322 16.1932H63.204L68.641 27.5902L73.9957 16.1932H80.1675L71.4219 32.8724Z" fill="#8A8A8A"/>
<path d="M96.2758 44.4684H84.0947V16.1932H95.786C101.468 16.1932 104.779 19.2907 104.779 24.1359C104.779 27.2722 102.652 29.2991 101.181 29.9739C102.937 30.7678 105.186 32.5544 105.186 36.3289C105.186 41.6089 101.468 44.4684 96.2758 44.4684ZM95.3362 21.1184H89.7767V27.6313H95.3362C97.7475 27.6313 99.0967 26.3205 99.0967 24.3738C99.0967 22.4292 97.7475 21.1184 95.3362 21.1184ZM95.7035 32.5955H89.7767V39.5453H95.7035C98.2795 39.5453 99.5041 37.9577 99.5041 36.0499C99.5041 34.1443 98.2795 32.5955 95.7035 32.5955Z" fill="#8A8A8A"/>
<path d="M135.396 21.1184V44.4706H129.714V21.1184H122.11V16.1932H142.999V21.1184H135.396Z" fill="#8A8A8A"/>
</svg>
