<svg width="176" height="51" viewBox="0 0 176 51" fill="none" xmlns="http://www.w3.org/2000/svg">
<g clip-path="url(#clip0_363_353)">
<path d="M23.8279 15.4181C22.0572 15.4181 21.526 16.1643 21.526 17.8263V20.5737H26.2713L25.811 25.0509H21.526V38.5843H15.8246V25.0509H12V20.6076H15.8246V17.928C15.8246 13.383 17.7369 11.0087 23.0134 11.0087C24.1112 11.0087 25.2444 11.0765 26.3422 11.2122V15.4181" fill="#8A8A8A"/>
<path d="M26.6604 29.0193C26.6604 23.9994 29.1393 20.2006 34.3804 20.2006C37.2134 20.2006 38.9486 21.5912 39.7985 23.355V20.6076H45.2521V38.6183H39.7631V35.9048C38.9841 37.6346 37.178 38.9914 34.345 38.9914C29.1393 38.9914 26.625 35.2264 26.625 30.1726M32.3619 30.2404C32.3619 32.92 33.3888 34.7176 36.0448 34.7176C38.382 34.7176 39.5507 33.0896 39.5507 30.5118V28.6802C39.5507 26.1024 38.3466 24.4743 36.0448 24.4743C33.3888 24.4743 32.3619 26.238 32.3619 28.9515V30.2404Z" fill="#8A8A8A"/>
<path d="M57.08 20.2006C59.2756 20.2006 61.4004 20.6415 62.5336 21.4216L61.2588 25.2883C60.0901 24.7456 58.7799 24.4743 57.4696 24.4743C54.3887 24.4743 53.043 26.1702 53.043 29.0872V30.1387C53.043 33.0556 54.3887 34.7516 57.4696 34.7516C58.7799 34.7516 60.0901 34.4463 61.2588 33.9036L62.5336 37.7703C61.4004 38.5165 59.3111 38.9914 57.08 38.9914C50.387 38.9914 47.377 35.5656 47.377 30.0369V29.1889C47.377 23.6602 50.387 20.2006 57.08 20.2006Z" fill="#8A8A8A"/>
<path d="M63.2773 30.2743V28.6802C63.2773 23.5585 66.3228 20.2006 72.5201 20.2006C78.3632 20.2006 80.9483 23.5924 80.9483 28.6123V31.4954H68.9788C69.085 33.9714 70.2537 35.0568 73.4054 35.0568C75.4593 35.0568 77.5133 34.6837 79.461 33.9714L80.4879 37.7025C79.0006 38.4487 75.9197 39.0253 73.1929 39.0253C65.9687 38.9914 63.2773 35.5656 63.2773 30.2743ZM68.9788 27.9H75.8489V27.4591C75.8489 25.4918 75.0344 23.9316 72.5201 23.9316C69.9704 23.9316 68.9788 25.4918 68.9788 27.9Z" fill="#8A8A8A"/>
<path d="M102.055 30.1726C102.055 35.1925 99.5403 38.9914 94.2992 38.9914C91.4662 38.9914 89.4831 37.6346 88.704 35.9048V38.6183H83.3213V11.5514L89.0227 11.0765V23.1175C89.8372 21.5234 91.6787 20.2345 94.3347 20.2345C99.5403 20.2345 102.09 23.9994 102.09 29.0533M96.3532 28.9176C96.3532 26.3737 95.3262 24.4743 92.5994 24.4743C90.2622 24.4743 89.0227 26.0684 89.0227 28.6462V30.5457C89.0227 33.1235 90.2976 34.7176 92.5994 34.7176C95.3262 34.7176 96.3532 32.8182 96.3532 30.2743V28.9176Z" fill="#8A8A8A"/>
<path d="M103.932 30.0369V29.1211C103.932 23.9316 107.013 20.2006 113.281 20.2006C119.549 20.2006 122.63 23.9316 122.63 29.1211V30.0369C122.63 35.2264 119.549 38.9574 113.281 38.9574C107.013 38.9574 103.932 35.2603 103.932 30.0369ZM116.964 28.748C116.964 26.3737 115.937 24.4743 113.281 24.4743C110.625 24.4743 109.598 26.3737 109.598 28.748V30.4439C109.598 32.8182 110.625 34.7176 113.281 34.7176C115.937 34.7176 116.964 32.8182 116.964 30.4439V28.748Z" fill="#8A8A8A"/>
<path d="M124.577 30.0369V29.1211C124.577 23.9316 127.658 20.2006 133.926 20.2006C140.194 20.2006 143.275 23.9316 143.275 29.1211V30.0369C143.275 35.2264 140.194 38.9574 133.926 38.9574C127.658 38.9574 124.577 35.2603 124.577 30.0369ZM137.609 28.748C137.609 26.3737 136.582 24.4743 133.926 24.4743C131.27 24.4743 130.243 26.3737 130.243 28.748V30.4439C130.243 32.8182 131.27 34.7176 133.926 34.7176C136.582 34.7176 137.609 32.8182 137.609 30.4439V28.748Z" fill="#8A8A8A"/>
<path d="M151.102 29.1889L156.732 20.5736H162.752L156.874 29.4942L163 38.6182H156.945L151.102 29.7995V38.6182H145.436V11.5513L151.102 11.0426" fill="#8A8A8A"/>
</g>
<defs>
<clipPath id="clip0_363_353">
<rect width="151" height="28" fill="white" transform="translate(12 11)"/>
</clipPath>
</defs>
</svg>
