<svg width="176" height="51" viewBox="0 0 176 51" fill="none" xmlns="http://www.w3.org/2000/svg">
<path d="M87.5216 21.1396V26.6191H98.6298V32.063H87.5216V40.6059H80.4033V15.6922H100.14V21.1396H87.5216Z" fill="#8A8A8A"/>
<path d="M110.456 21.282H102.727V15.6922H125.267V21.282H117.574V40.6059H110.456V21.282Z" fill="#8A8A8A"/>
<path d="M144.175 40.6059L138.963 32.8813L133.822 40.6059H125.697L134.865 28.0067L126.093 15.6922H134.109L139.143 22.8831L144.103 15.6922H151.797L143.025 27.7221L152.372 40.6059H144.175Z" fill="#8A8A8A"/>
<path d="M36.2119 46H46.9513V35.372H36.2119V46Z" fill="#8A8A8A"/>
<path d="M56.4795 20.6807H36.2119V31.3122H56.4795H60.1654V20.6842H56.4795V20.6807Z" fill="#8A8A8A"/>
<path d="M36.2119 6V16.628H69.4797V6H36.2119Z" fill="#8A8A8A"/>
<path d="M23 31.3122H33.7358V20.6807H23V31.3122Z" fill="#8A8A8A"/>
</svg>
