<svg width="24" height="24" viewBox="0 0 24 24" fill="none" xmlns="http://www.w3.org/2000/svg">
<g clip-path="url(#clip0_83_259)">
<path d="M17.25 0.75C13.9363 0.75 11.25 3.43629 11.25 6.75C11.25 10.0637 13.9363 12.75 17.25 12.75C20.5637 12.75 23.25 10.0637 23.25 6.75C23.25 3.43629 20.5637 0.75 17.25 0.75Z" fill="#45D2F0"/>
<path d="M6.75 11.25C3.43629 11.25 0.75 13.9363 0.75 17.25C0.75 20.5637 3.43629 23.25 6.75 23.25C10.0637 23.25 12.75 20.5637 12.75 17.25C12.75 13.9363 10.0637 11.25 6.75 11.25Z" fill="#45D2F0"/>
<path d="M4.4955 5.07473L5.4045 5.26609C5.68582 5.3253 5.9085 5.5401 5.97787 5.8191C6.04721 6.09806 5.95099 6.39214 5.73015 6.57615L3.48014 8.45115C3.30413 8.59785 3.07071 8.65601 2.84644 8.6091C2.62218 8.56219 2.43165 8.41534 2.32919 8.2104L1.01668 5.5854C0.88797 5.32796 0.917925 5.0196 1.09378 4.79175C1.26964 4.5639 1.56037 4.4568 1.84201 4.51609L2.9685 4.75324C4.12571 2.38288 6.55965 0.75 9.375 0.75C9.78922 0.75 10.125 1.08579 10.125 1.5C10.125 1.91421 9.78922 2.25 9.375 2.25C7.28794 2.25 5.46634 3.38666 4.4955 5.07473Z" fill="#45D2F0"/>
<path d="M18.5955 18.7339L19.5045 18.9253C18.5337 20.6133 16.7121 21.75 14.625 21.75C14.2108 21.75 13.875 22.0858 13.875 22.5C13.875 22.9142 14.2108 23.25 14.625 23.25C17.4403 23.25 19.8743 21.6171 21.0315 19.2468L22.158 19.4839C22.4396 19.5432 22.7304 19.4361 22.9062 19.2082C23.0821 18.9804 23.112 18.672 22.9833 18.4146L21.6708 15.7896C21.5683 15.5847 21.3778 15.4378 21.1536 15.3909C20.9293 15.344 20.6959 15.4021 20.5198 15.5488L18.2698 17.4238C18.049 17.6079 17.9528 17.9019 18.0221 18.1809C18.0915 18.4599 18.3142 18.6747 18.5955 18.7339Z" fill="#45D2F0"/>
</g>
<defs>
<clipPath id="clip0_83_259">
<rect width="24" height="24" fill="white"/>
</clipPath>
</defs>
</svg>
