<svg width="176" height="51" viewBox="0 0 176 51" fill="none" xmlns="http://www.w3.org/2000/svg">
<path d="M65.7961 10H35.6998C35.5142 10 35.3362 10.0725 35.205 10.2018C35.0737 10.3309 35 10.5061 35 10.6889V40.3105C35 40.4932 35.0737 40.6684 35.205 40.7975C35.3362 40.9268 35.5142 40.9993 35.6998 40.9993H65.7961C65.9818 40.9993 66.1598 40.9268 66.291 40.7975C66.4223 40.6684 66.496 40.4932 66.496 40.3105V10.6889C66.496 10.5061 66.4223 10.3309 66.291 10.2018C66.1598 10.0725 65.9818 10 65.7961 10ZM55.9973 29.9774C55.9973 30.1601 55.9236 30.3353 55.7923 30.4645C55.6611 30.5936 55.4831 30.6663 55.2975 30.6663H46.1985C46.0129 30.6663 45.8349 30.5936 45.7036 30.4645C45.5724 30.3353 45.4987 30.1601 45.4987 29.9774V21.0219C45.4987 20.8393 45.5724 20.664 45.7036 20.5349C45.8349 20.4057 46.0129 20.3331 46.1985 20.3331H55.2975C55.4831 20.3331 55.6611 20.4057 55.7923 20.5349C55.9236 20.664 55.9973 20.8393 55.9973 21.0219V29.9774Z" fill="#8A8A8A"/>
<path d="M128.806 20.3343H119.707C119.32 20.3343 119.007 20.6426 119.007 21.023V29.9785C119.007 30.3589 119.32 30.6674 119.707 30.6674H128.806C129.192 30.6674 129.506 30.3589 129.506 29.9785V21.023C129.506 20.6426 129.192 20.3343 128.806 20.3343Z" fill="#8A8A8A"/>
<path d="M118.303 10.0008H109.204C108.817 10.0008 108.504 10.3092 108.504 10.6897V19.645C108.504 20.0255 108.817 20.334 109.204 20.334H118.303C118.689 20.334 119.003 20.0255 119.003 19.645V10.6897C119.003 10.3092 118.689 10.0008 118.303 10.0008Z" fill="#8A8A8A"/>
<path d="M139.3 10.0008H130.201C129.814 10.0008 129.501 10.3092 129.501 10.6897V19.645C129.501 20.0255 129.814 20.334 130.201 20.334H139.3C139.686 20.334 140 20.0255 140 19.645V10.6897C140 10.3092 139.686 10.0008 139.3 10.0008Z" fill="#8A8A8A"/>
<path d="M118.303 30.6668H109.204C108.817 30.6668 108.504 30.9752 108.504 31.3556V40.3111C108.504 40.6915 108.817 41 109.204 41H118.303C118.689 41 119.003 40.6915 119.003 40.3111V31.3556C119.003 30.9752 118.689 30.6668 118.303 30.6668Z" fill="#8A8A8A"/>
<path d="M139.3 30.6668H130.201C129.814 30.6668 129.501 30.9752 129.501 31.3556V40.3111C129.501 40.6915 129.814 41 130.201 41H139.3C139.686 41 140 40.6915 140 40.3111V31.3556C140 30.9752 139.686 30.6668 139.3 30.6668Z" fill="#8A8A8A"/>
<path d="M102.541 10.0008H93.4422C93.0556 10.0008 92.7422 10.3092 92.7422 10.6897V19.645C92.7422 20.0255 93.0556 20.334 93.4422 20.334H102.541C102.927 20.334 103.241 20.0255 103.241 19.645V10.6897C103.241 10.3092 102.927 10.0008 102.541 10.0008Z" fill="#8A8A8A"/>
<path d="M102.541 30.6668H93.4422C93.0556 30.6668 92.7422 30.9752 92.7422 31.3556V40.3111C92.7422 40.6915 93.0556 41 93.4422 41H102.541C102.927 41 103.241 40.6915 103.241 40.3111V31.3556C103.241 30.9752 102.927 30.6668 102.541 30.6668Z" fill="#8A8A8A"/>
<path d="M92.7426 21.0142C92.7426 20.8315 92.6687 20.6563 92.5375 20.5272C92.4062 20.3979 92.2282 20.3254 92.0426 20.3254H82.2438V10.6889C82.2438 10.5061 82.17 10.3309 82.0388 10.2018C81.9075 10.0725 81.7295 10 81.5439 10H72.4451C72.2593 10 72.0813 10.0725 71.9501 10.2018C71.8188 10.3309 71.7451 10.5061 71.7451 10.6889V40.295C71.7451 40.4777 71.8188 40.6529 71.9501 40.782C72.0813 40.9113 72.2593 40.9838 72.4451 40.9838H81.5439C81.7295 40.9838 81.9075 40.9113 82.0388 40.782C82.17 40.6529 82.2438 40.4777 82.2438 40.295V30.6585H92.0426C92.2282 30.6585 92.4062 30.5859 92.5375 30.4568C92.6687 30.3275 92.7426 30.1523 92.7426 29.9696V21.0142Z" fill="#8A8A8A"/>
</svg>
