<svg width="24" height="24" viewBox="0 0 24 24" fill="none" xmlns="http://www.w3.org/2000/svg">
<path d="M20.9029 16.0283C20.3421 16.0283 19.8484 16.2487 19.4327 16.5583L16.7211 14.3935C17.1228 13.7212 17.3683 12.9485 17.3683 12.1116C17.3683 11.1966 17.0894 10.3485 16.6207 9.63714L18.7269 7.77921C19.1928 8.11677 19.7312 8.35668 20.3477 8.35668C21.9099 8.35668 23.1736 7.08738 23.1736 5.52795C23.1736 3.96852 21.9099 2.70201 20.3477 2.70201C18.7911 2.70201 17.5218 3.97131 17.5218 5.52795C17.5218 6.01893 17.6836 6.4597 17.904 6.8642L15.7894 8.72491C15.0055 8.04702 13.9984 7.62578 12.8798 7.62578C12.4585 7.62578 12.054 7.70389 11.6635 7.81548L10.2407 4.59062C10.5755 4.26702 10.7847 3.82067 10.7847 3.31853C10.7847 2.33935 9.98965 1.5415 9.00769 1.5415C8.02572 1.5415 7.23624 2.33935 7.23624 3.31853C7.23624 4.30049 8.0313 5.09555 9.01326 5.09555C9.04953 5.09555 9.07743 5.07881 9.11369 5.07602L10.5364 8.30646C9.25876 9.09594 8.39396 10.4991 8.39396 12.1116C8.39396 12.1227 8.39675 12.1367 8.39675 12.1478L6.92101 12.3654C6.47466 11.0933 5.29184 10.1672 3.86911 10.1672C2.06698 10.1672 0.599609 11.6345 0.599609 13.4395C0.599609 15.2416 2.06419 16.709 3.86911 16.709C5.62102 16.709 7.02981 15.3141 7.10792 13.5845L8.59481 13.3641C9.00769 14.7785 10.0957 15.8916 11.4905 16.3519L11.0162 18.9686C10.1961 19.1248 9.56004 19.8139 9.56004 20.6815C9.56004 21.6634 10.3523 22.4585 11.3343 22.4585C12.3162 22.4585 13.1113 21.6634 13.1113 20.6815C13.1113 20.037 12.7486 19.4931 12.2325 19.1834L12.704 16.5751C12.7626 16.5778 12.8212 16.5946 12.8825 16.5946C14.0765 16.5946 15.1533 16.1203 15.9596 15.3615L18.6376 17.504C18.4926 17.8165 18.4061 18.1596 18.4061 18.525C18.4061 19.9031 19.522 21.0218 20.9056 21.0218C22.2782 21.0218 23.3996 19.9059 23.3996 18.525C23.3968 17.1497 22.2782 16.0283 20.9029 16.0283Z" fill="#6AD9FF"/>
</svg>
