<svg width="176" height="51" viewBox="0 0 176 51" fill="none" xmlns="http://www.w3.org/2000/svg">
<g clip-path="url(#clip0_363_282)">
<path d="M43.9459 19.8002C46.5986 21.6916 49.8484 22.8045 53.3583 22.8045V16.0677C52.6941 16.0678 52.0315 15.9988 51.3816 15.8614V21.1642C47.872 21.1642 44.6227 20.0514 41.9692 18.1601V31.9079C41.9692 38.7852 36.3797 44.36 29.485 44.36C26.9125 44.36 24.5214 43.5843 22.5352 42.2539C24.8022 44.5659 27.9637 46.0001 31.4613 46.0001C38.3563 46.0001 43.9461 40.4253 43.9461 33.5477V19.8002H43.9459ZM46.3843 13.0036C45.0286 11.5263 44.1385 9.61713 43.9459 7.50648V6.63998H42.0727C42.5442 9.32262 44.1524 11.6145 46.3843 13.0036ZM26.896 36.9764C26.1386 35.9858 25.7292 34.774 25.7311 33.528C25.7311 30.3826 28.2877 27.8322 31.4418 27.8322C32.0297 27.8321 32.614 27.9218 33.1742 28.0991V21.2118C32.5195 21.1223 31.8588 21.0843 31.1983 21.0982V26.459C30.6377 26.2817 30.0531 26.1917 29.4652 26.1922C26.311 26.1922 23.7545 28.7423 23.7545 31.8882C23.7545 34.1125 25.0324 36.0383 26.896 36.9764Z" fill="#FFFCFD"/>
<path d="M41.9687 18.1599C44.6222 20.0512 47.8715 21.1641 51.3812 21.1641V15.8613C49.4221 15.4451 47.6878 14.4239 46.3839 13.0036C44.1518 11.6144 42.5437 9.32248 42.0722 6.63998H37.1519V33.5474C37.1407 36.6843 34.5885 39.2243 31.4411 39.2243C29.5864 39.2243 27.9387 38.3424 26.8951 36.9764C25.0317 36.0383 23.7538 34.1124 23.7538 31.8883C23.7538 28.7427 26.3103 26.1924 29.4644 26.1924C30.0688 26.1924 30.6512 26.2862 31.1976 26.4592V21.0984C24.4241 21.238 18.9766 26.7583 18.9766 33.5476C18.9766 36.9367 20.3331 40.0091 22.5348 42.254C24.5211 43.5843 26.9122 44.3602 29.4847 44.3602C36.3795 44.3602 41.9689 38.7851 41.9689 31.9079V18.1599H41.9687Z" fill="#8A8A8A"/>
<path d="M51.3812 15.8613V14.4274C49.6146 14.4301 47.8827 13.9366 46.3838 13.0035C47.7106 14.4523 49.4578 15.4514 51.3812 15.8613ZM42.0722 6.63998C42.0272 6.3836 41.9927 6.12554 41.9687 5.86649V5H35.175V31.9077C35.1642 35.0442 32.6121 37.5841 29.4644 37.5841C28.5403 37.5841 27.6678 37.3653 26.8951 36.9765C27.9386 38.3424 29.5864 39.2241 31.4411 39.2241C34.5882 39.2241 37.1409 36.6844 37.1519 33.5476V6.63998H42.0722ZM31.1979 21.0984V19.572C30.6302 19.4946 30.0579 19.4557 29.4848 19.456C22.5895 19.4559 17 25.0309 17 31.9077C17 36.2191 19.1968 40.0187 22.535 42.2537C20.3332 40.009 18.9767 36.9364 18.9767 33.5474C18.9767 26.7583 24.4241 21.238 31.1979 21.0984Z" fill="#FEFFFF"/>
<path d="M130.1 38.7225C135.033 38.7225 139.033 34.7634 139.033 29.8802C139.033 24.9972 135.033 21.0374 130.1 21.0374H128.754C133.687 21.0374 137.687 24.997 137.687 29.8802C137.687 34.7634 133.687 38.7225 128.754 38.7225H130.1Z" fill="#FFFCFD"/>
<path d="M128.632 21.0374H127.286C122.353 21.0374 118.353 24.997 118.353 29.8802C118.353 34.7634 122.353 38.7225 127.286 38.7225H128.632C123.698 38.7225 119.698 34.7634 119.698 29.8802C119.698 24.9972 123.698 21.0374 128.632 21.0374Z" fill="#FEFFFF"/>
<path d="M60.7188 17.0408V21.5229H65.9796V38.6014H71.2426V21.6439H75.525L76.9934 17.041L60.7188 17.0408ZM103.792 17.0408V21.5229H109.053V38.6014H114.316V21.6439H118.598L120.066 17.041L103.792 17.0408ZM77.9732 19.5843C77.9732 18.1799 79.1218 17.0408 80.5408 17.0408C81.9611 17.0408 83.111 18.1799 83.111 19.5843C83.111 20.9889 81.9618 22.1279 80.5408 22.1279C79.1218 22.1272 77.9732 20.9889 77.9732 19.5843ZM77.9732 23.9454H83.111V38.6014H77.9732V23.9454ZM85.3139 17.0408V38.6013H90.4537V33.03L92.0446 31.5752L97.0609 38.7223H102.567L95.3468 28.3055L101.832 22.0062H95.592L90.4537 27.0933V17.0408H85.3139ZM140.745 17.0408V38.6013H145.885V33.03L147.475 31.5752L152.493 38.7223H158L150.78 28.3055L157.265 22.0062H151.025L145.885 27.0933V17.0408H140.745Z" fill="#8A8A8A"/>
<path d="M128.753 38.7225C133.687 38.7225 137.687 34.7634 137.687 29.8802C137.687 24.9972 133.687 21.0374 128.753 21.0374H128.631C123.698 21.0374 119.698 24.997 119.698 29.8802C119.698 34.7634 123.698 38.7225 128.631 38.7225H128.753ZM124.348 29.8802C124.348 27.5049 126.294 25.5808 128.693 25.5808C131.091 25.5808 133.037 27.5049 133.037 29.8802C133.037 32.2556 131.091 34.1808 128.693 34.1808C126.294 34.1803 124.348 32.2556 124.348 29.8802Z" fill="#8A8A8A"/>
</g>
<defs>
<clipPath id="clip0_363_282">
<rect width="141" height="41" fill="white" transform="translate(17 5)"/>
</clipPath>
</defs>
</svg>
